<svg xmlns="http://www.w3.org/2000/svg" viewBox="0 0 240 44" fill="none">
  <g fill="#D6A149">
    <path d="M0 34h240v10H0z"/>
    <path d="M0 34c14-3 18-12 18-19 0-6 4-10 10-10s10 4 10 10c0 7-4 16-18 19H0z"/>
    <path d="M240 34c-14-3-18-12-18-19 0-6-4-10-10-10s-10 4-10 10c0 7 4 16 18 19h20z"/>
    <path d="M23 34c0-9 8-15 16-15 10 0 18 7 18 15H23zm2-16c0-6 5-11 11-11s11 5 11 11c0 6-5 10-11 10s-11-4-11-10z"/>
    <path d="M63 34c0-7 6-13 14-13s14 6 14 13H63zm2-17c0-5 4-9 9-9s9 4 9 9-4 9-9 9-9-4-9-9z"/>
    <path d="M103 34c0-9 8-15 17-15s17 6 17 15h-34z"/>
    <path d="M111 22c0-6 4-10 9-10 4 0 7 2 9 6 2-4 5-6 9-6 5 0 9 4 9 10 0 6-5 10-11 10-7 0-10-4-16-11-6 7-9 11-16 11-6 0-11-4-11-10z"/>
    <path d="M150 34c0-7 6-13 14-13s14 6 14 13h-28zm2-17c0-5 4-9 9-9s9 4 9 9-4 9-9 9-9-4-9-9z"/>
    <path d="M183 34c0-9 8-15 16-15 10 0 18 7 18 15h-34zm2-16c0-6 5-11 11-11s11 5 11 11c0 6-5 10-11 10s-11-4-11-10z"/>
    <path d="M54 13c3 0 5 2 5 5 0 4-3 6-7 6-2 0-4-1-5-2 2 0 4-1 4-4 0-2-1-3-3-4 2-1 4-1 6-1z"/>
    <path d="M186 13c3 0 5 2 5 5 0 4-3 6-7 6-2 0-4-1-5-2 2 0 4-1 4-4 0-2-1-3-3-4 2-1 4-1 6-1z"/>
    <path d="M80 10c2 0 4 2 4 4 0 4-3 6-6 6-2 0-4-1-5-2 2 0 3-1 3-3 0-2-1-3-3-4 2-1 4-1 7-1z"/>
    <path d="M156 10c2 0 4 2 4 4 0 4-3 6-6 6-2 0-4-1-5-2 2 0 3-1 3-3 0-2-1-3-3-4 2-1 4-1 7-1z"/>
    <circle cx="120" cy="7" r="5"/>
    <circle cx="36" cy="7" r="3"/>
    <circle cx="204" cy="7" r="3"/>
  </g>
</svg>
