<svg xmlns="http://www.w3.org/2000/svg" viewBox="0 0 1000 620" fill="none" preserveAspectRatio="none">
  <defs>
    <pattern id="topBand" x="0" y="0" width="96" height="22" patternUnits="userSpaceOnUse">
      <g stroke="#D6A149" stroke-width="3.8" stroke-linecap="round" stroke-linejoin="round" fill="none">
        <path d="M8 15c8 0 12-8 20-8s12 8 20 8"/>
        <path d="M48 9c3-3 9-3 12 0"/>
      </g>
      <circle cx="48" cy="6.5" r="2.8" fill="#D6A149"/>
    </pattern>
    <pattern id="sideBand" x="0" y="0" width="22" height="96" patternUnits="userSpaceOnUse">
      <g stroke="#D6A149" stroke-width="3.8" stroke-linecap="round" stroke-linejoin="round" fill="none">
        <path d="M15 8c0 8-8 12-8 20s8 12 8 20"/>
        <path d="M9 48c-3 3-3 9 0 12"/>
      </g>
      <circle cx="6.5" cy="48" r="2.8" fill="#D6A149"/>
    </pattern>
    <g id="cornerMotif" stroke="#D6A149" stroke-width="3.8" stroke-linecap="round" stroke-linejoin="round" fill="none">
      <path d="M20 74c0-28 16-44 44-44"/>
      <path d="M26 68c0-18 10-30 30-30"/>
      <path d="M54 20c16 0 26 9 26 26"/>
      <path d="M38 20c0 7 6 13 13 13"/>
      <path d="M20 38c7 0 13 6 13 13"/>
    </g>
  </defs>

  <rect x="4" y="4" width="992" height="612" rx="34" stroke="#D6A149" stroke-width="4"/>
  <rect x="16" y="16" width="968" height="588" rx="28" stroke="rgba(214,161,73,0.68)" stroke-width="2"/>

  <rect x="124" y="30" width="752" height="22" fill="url(#topBand)"/>
  <rect x="124" y="568" width="752" height="22" fill="url(#topBand)"/>
  <rect x="30" y="124" width="22" height="372" fill="url(#sideBand)"/>
  <rect x="948" y="124" width="22" height="372" fill="url(#sideBand)"/>

  <use href="#cornerMotif" transform="translate(24 24)"/>
  <use href="#cornerMotif" transform="translate(976 24) scale(-1 1)"/>
  <use href="#cornerMotif" transform="translate(24 596) scale(1 -1)"/>
  <use href="#cornerMotif" transform="translate(976 596) scale(-1 -1)"/>
</svg>
