<svg xmlns="http://www.w3.org/2000/svg" viewBox="0 0 1000 620" fill="none" preserveAspectRatio="none">
  <defs>
    <pattern id="topBand" x="0" y="0" width="120" height="28" patternUnits="userSpaceOnUse">
      <g stroke="#D6A149" stroke-width="4.5" stroke-linecap="round" stroke-linejoin="round" fill="none">
        <path d="M8 20c10 0 14-10 22-10s12 10 22 10"/>
        <path d="M68 20c10 0 14-10 22-10s12 10 22 10"/>
        <path d="M52 12c4-4 12-4 16 0"/>
      </g>
      <circle cx="60" cy="9" r="3.5" fill="#D6A149"/>
    </pattern>
    <pattern id="sideBand" x="0" y="0" width="28" height="120" patternUnits="userSpaceOnUse">
      <g stroke="#D6A149" stroke-width="4.5" stroke-linecap="round" stroke-linejoin="round" fill="none">
        <path d="M20 8c0 10-10 14-10 22s10 12 10 22"/>
        <path d="M20 68c0 10-10 14-10 22s10 12 10 22"/>
        <path d="M12 52c-4 4-4 12 0 16"/>
      </g>
      <circle cx="9" cy="60" r="3.5" fill="#D6A149"/>
    </pattern>
    <g id="cornerMotif" stroke="#D6A149" stroke-width="4.5" stroke-linecap="round" stroke-linejoin="round" fill="none">
      <path d="M28 92c0-36 20-56 56-56"/>
      <path d="M36 84c0-24 14-40 40-40"/>
      <path d="M72 28c22 0 34 12 34 34"/>
      <path d="M48 28c0 10 8 18 18 18"/>
      <path d="M28 48c10 0 18 8 18 18"/>
    </g>
  </defs>

  <rect x="4" y="4" width="992" height="612" rx="34" stroke="#D6A149" stroke-width="4"/>
  <rect x="16" y="16" width="968" height="588" rx="28" stroke="rgba(214,161,73,0.68)" stroke-width="2"/>

  <rect x="112" y="24" width="776" height="28" fill="url(#topBand)"/>
  <rect x="112" y="568" width="776" height="28" fill="url(#topBand)"/>
  <rect x="24" y="112" width="28" height="396" fill="url(#sideBand)"/>
  <rect x="948" y="112" width="28" height="396" fill="url(#sideBand)"/>

  <use href="#cornerMotif" x="0" y="0"/>
  <use href="#cornerMotif" transform="translate(1000 0) scale(-1 1)"/>
  <use href="#cornerMotif" transform="translate(0 620) scale(1 -1)"/>
  <use href="#cornerMotif" transform="translate(1000 620) scale(-1 -1)"/>

  <circle cx="44" cy="44" r="7" fill="#D6A149"/>
  <circle cx="956" cy="44" r="7" fill="#D6A149"/>
  <circle cx="44" cy="576" r="7" fill="#D6A149"/>
  <circle cx="956" cy="576" r="7" fill="#D6A149"/>
</svg>
