<svg xmlns="http://www.w3.org/2000/svg" viewBox="0 0 240 36" fill="none">
  <g fill="#D2AA53">
    <path d="M0 30h34c11 0 18-8 25-16 7 8 14 16 25 16h35v6H0z"/>
    <path d="M120 30h34c11 0 18-8 25-16 7 8 14 16 25 16h36v6H120z"/>
    <path d="M57 11c0-5.2 4.2-9.4 9.4-9.4 3.5 0 6.6 1.9 8.3 4.9 1.7-3 4.8-4.9 8.3-4.9 5.2 0 9.4 4.2 9.4 9.4 0 8.2-10.6 11.7-17.7 18.1C67.6 22.7 57 19.2 57 11z"/>
    <path d="M177 11c0-5.2 4.2-9.4 9.4-9.4 3.5 0 6.6 1.9 8.3 4.9 1.7-3 4.8-4.9 8.3-4.9 5.2 0 9.4 4.2 9.4 9.4 0 8.2-10.6 11.7-17.7 18.1-7.1-6.4-17.7-9.9-17.7-18.1z"/>
    <path d="M102 30c8.5 0 13.8-7.9 18-14.5 4.2 6.6 9.5 14.5 18 14.5v6h-36z"/>
    <circle cx="120" cy="10.2" r="5.4"/>
    <path d="M111.5 18.6c3.2 2 5.4 4.8 8.5 8.7 3.1-3.9 5.3-6.7 8.5-8.7-0.8 5.4-3.1 8.8-8.5 12.7-5.4-3.9-7.7-7.3-8.5-12.7z"/>
  </g>
</svg>
