<svg xmlns="http://www.w3.org/2000/svg" viewBox="0 0 1000 620" fill="none" preserveAspectRatio="none">
  <defs>
    <pattern id="topBand" x="0" y="0" width="132" height="32" patternUnits="userSpaceOnUse">
      <g stroke="#D6A149" stroke-width="5.5" stroke-linecap="round" stroke-linejoin="round" fill="none">
        <path d="M2 24c14 0 16-18 28-18 10 0 15 7 22 18"/>
        <path d="M130 24c-14 0-16-18-28-18-10 0-15 7-22 18"/>
        <path d="M42 23c4-9 14-9 18 0"/>
        <path d="M72 23c4-9 14-9 18 0"/>
      </g>
      <circle cx="66" cy="8" r="4" fill="#D6A149"/>
    </pattern>
    <pattern id="sideBand" x="0" y="0" width="32" height="132" patternUnits="userSpaceOnUse">
      <g stroke="#D6A149" stroke-width="5.5" stroke-linecap="round" stroke-linejoin="round" fill="none">
        <path d="M24 2c0 14-18 16-18 28 0 10 7 15 18 22"/>
        <path d="M24 130c0-14-18-16-18-28 0-10 7-15 18-22"/>
        <path d="M23 42c-9 4-9 14 0 18"/>
        <path d="M23 72c-9 4-9 14 0 18"/>
      </g>
      <circle cx="8" cy="66" r="4" fill="#D6A149"/>
    </pattern>
  </defs>

  <rect x="2" y="2" width="996" height="616" rx="34" stroke="#D6A149" stroke-width="4"/>
  <rect x="34" y="18" width="932" height="32" fill="url(#topBand)"/>
  <rect x="34" y="570" width="932" height="32" fill="url(#topBand)"/>
  <rect x="18" y="34" width="32" height="552" fill="url(#sideBand)"/>
  <rect x="950" y="34" width="32" height="552" fill="url(#sideBand)"/>
  <circle cx="34" cy="34" r="8" fill="#D6A149"/>
  <circle cx="966" cy="34" r="8" fill="#D6A149"/>
  <circle cx="34" cy="586" r="8" fill="#D6A149"/>
  <circle cx="966" cy="586" r="8" fill="#D6A149"/>
</svg>
