<svg xmlns="http://www.w3.org/2000/svg" viewBox="0 0 44 240" fill="none">
  <g fill="#D6A149">
    <path d="M0 0h10v240H0z"/>
    <path d="M10 0c3 14 12 18 19 18 6 0 10 4 10 10s-4 10-10 10c-7 0-16-4-19-18V0z"/>
    <path d="M10 240c3-14 12-18 19-18 6 0 10-4 10-10s-4-10-10-10c-7 0-16 4-19 18v20z"/>
    <path d="M10 23c9 0 15 8 15 16 0 10-7 18-15 18V23zm16 2c6 0 11 5 11 11s-5 11-11 11c-6 0-10-5-10-11s4-11 10-11z"/>
    <path d="M10 63c7 0 13 6 13 14s-6 14-13 14V63zm17 2c5 0 9 4 9 9s-4 9-9 9-9-4-9-9 4-9 9-9z"/>
    <path d="M10 103c9 0 15 8 15 17s-6 17-15 17v-34z"/>
    <path d="M22 111c6 0 10 4 10 9 0 4-2 7-6 9 4 2 6 5 6 9 0 5-4 9-10 9-6 0-10-5-10-11 0-7 4-10 11-16-7-6-11-9-11-16 0-6 4-11 10-11z"/>
    <path d="M10 150c7 0 13 6 13 14s-6 14-13 14v-28zm17 2c5 0 9 4 9 9s-4 9-9 9-9-4-9-9 4-9 9-9z"/>
    <path d="M10 183c9 0 15 8 15 16 0 10-7 18-15 18v-34zm16 2c6 0 11 5 11 11s-5 11-11 11c-6 0-10-5-10-11s4-11 10-11z"/>
    <path d="M31 54c0 3-2 5-5 5-4 0-6-3-6-7 0-2 1-4 2-5 0 2 1 4 4 4 2 0 3-1 4-3 1 2 1 4 1 6z"/>
    <path d="M31 186c0 3-2 5-5 5-4 0-6-3-6-7 0-2 1-4 2-5 0 2 1 4 4 4 2 0 3-1 4-3 1 2 1 4 1 6z"/>
    <path d="M34 80c0 2-2 4-4 4-4 0-6-3-6-6 0-2 1-4 2-5 0 2 1 3 3 3 2 0 3-1 4-3 1 2 1 4 1 7z"/>
    <path d="M34 156c0 2-2 4-4 4-4 0-6-3-6-6 0-2 1-4 2-5 0 2 1 3 3 3 2 0 3-1 4-3 1 2 1 4 1 7z"/>
    <circle cx="37" cy="120" r="5"/>
    <circle cx="37" cy="36" r="3"/>
    <circle cx="37" cy="204" r="3"/>
  </g>
</svg>
